<mxfile host="app.diagrams.net" modified="2022-02-21T18:32:30.210Z" agent="5.0 (Windows NT 10.0; Win64; x64) AppleWebKit/537.36 (KHTML, like Gecko) Chrome/96.0.4664.174 YaBrowser/22.1.3.848 Yowser/2.5 Safari/537.36" etag="5hA_D0fEwiwUkYsfd0P1" version="16.6.1" type="github">
  <diagram id="mw14hwW4wBBM9wd85H6a" name="Page-1">
    <mxGraphModel dx="1381" dy="757" grid="1" gridSize="10" guides="1" tooltips="1" connect="1" arrows="1" fold="1" page="1" pageScale="1" pageWidth="827" pageHeight="1169" math="0" shadow="0">
      <root>
        <mxCell id="0" />
        <mxCell id="1" parent="0" />
        <mxCell id="sro_WitSXFkHnFcWvMGU-17" style="edgeStyle=orthogonalEdgeStyle;rounded=0;orthogonalLoop=1;jettySize=auto;html=1;entryX=0;entryY=0;entryDx=0;entryDy=15;entryPerimeter=0;dashed=1;endArrow=block;endFill=0;" edge="1" parent="1" source="sro_WitSXFkHnFcWvMGU-10" target="sro_WitSXFkHnFcWvMGU-16">
          <mxGeometry relative="1" as="geometry">
            <Array as="points">
              <mxPoint x="300" y="125" />
              <mxPoint x="300" y="55" />
            </Array>
          </mxGeometry>
        </mxCell>
        <mxCell id="sro_WitSXFkHnFcWvMGU-22" style="edgeStyle=orthogonalEdgeStyle;rounded=0;orthogonalLoop=1;jettySize=auto;html=1;entryX=0;entryY=0;entryDx=0;entryDy=15;entryPerimeter=0;dashed=1;endArrow=block;endFill=0;" edge="1" parent="1" source="sro_WitSXFkHnFcWvMGU-10" target="sro_WitSXFkHnFcWvMGU-18">
          <mxGeometry relative="1" as="geometry" />
        </mxCell>
        <mxCell id="sro_WitSXFkHnFcWvMGU-23" style="edgeStyle=orthogonalEdgeStyle;rounded=0;orthogonalLoop=1;jettySize=auto;html=1;entryX=0;entryY=0;entryDx=0;entryDy=15;entryPerimeter=0;dashed=1;endArrow=block;endFill=0;" edge="1" parent="1" source="sro_WitSXFkHnFcWvMGU-10" target="sro_WitSXFkHnFcWvMGU-19">
          <mxGeometry relative="1" as="geometry" />
        </mxCell>
        <mxCell id="sro_WitSXFkHnFcWvMGU-24" style="edgeStyle=orthogonalEdgeStyle;rounded=0;orthogonalLoop=1;jettySize=auto;html=1;entryX=0;entryY=0;entryDx=0;entryDy=15;entryPerimeter=0;dashed=1;endArrow=block;endFill=0;" edge="1" parent="1" source="sro_WitSXFkHnFcWvMGU-10" target="sro_WitSXFkHnFcWvMGU-20">
          <mxGeometry relative="1" as="geometry" />
        </mxCell>
        <mxCell id="sro_WitSXFkHnFcWvMGU-25" style="edgeStyle=orthogonalEdgeStyle;rounded=0;orthogonalLoop=1;jettySize=auto;html=1;entryX=0;entryY=0;entryDx=0;entryDy=15;entryPerimeter=0;dashed=1;endArrow=block;endFill=0;" edge="1" parent="1" source="sro_WitSXFkHnFcWvMGU-10" target="sro_WitSXFkHnFcWvMGU-21">
          <mxGeometry relative="1" as="geometry" />
        </mxCell>
        <mxCell id="sro_WitSXFkHnFcWvMGU-10" value="Сайт" style="shape=module;align=left;spacingLeft=20;align=center;verticalAlign=top;" vertex="1" parent="1">
          <mxGeometry x="150" y="100" width="100" height="50" as="geometry" />
        </mxCell>
        <mxCell id="sro_WitSXFkHnFcWvMGU-14" style="edgeStyle=orthogonalEdgeStyle;rounded=0;orthogonalLoop=1;jettySize=auto;html=1;entryX=0.25;entryY=0;entryDx=0;entryDy=0;" edge="1" parent="1" source="sro_WitSXFkHnFcWvMGU-11" target="sro_WitSXFkHnFcWvMGU-10">
          <mxGeometry relative="1" as="geometry" />
        </mxCell>
        <mxCell id="sro_WitSXFkHnFcWvMGU-11" value="Пользователь" style="shape=umlActor;verticalLabelPosition=bottom;verticalAlign=top;html=1;" vertex="1" parent="1">
          <mxGeometry x="95" y="50" width="30" height="60" as="geometry" />
        </mxCell>
        <mxCell id="sro_WitSXFkHnFcWvMGU-42" style="edgeStyle=orthogonalEdgeStyle;rounded=0;orthogonalLoop=1;jettySize=auto;html=1;entryX=1;entryY=0.5;entryDx=0;entryDy=0;endArrow=block;endFill=0;exitX=1;exitY=0.5;exitDx=0;exitDy=0;" edge="1" parent="1" source="sro_WitSXFkHnFcWvMGU-16" target="sro_WitSXFkHnFcWvMGU-18">
          <mxGeometry relative="1" as="geometry">
            <mxPoint x="460" y="65" as="sourcePoint" />
            <Array as="points">
              <mxPoint x="460" y="65" />
              <mxPoint x="460" y="155" />
            </Array>
          </mxGeometry>
        </mxCell>
        <mxCell id="sro_WitSXFkHnFcWvMGU-43" style="edgeStyle=orthogonalEdgeStyle;rounded=0;orthogonalLoop=1;jettySize=auto;html=1;entryX=1;entryY=0.5;entryDx=0;entryDy=0;endArrow=block;endFill=0;" edge="1" parent="1" source="sro_WitSXFkHnFcWvMGU-16" target="sro_WitSXFkHnFcWvMGU-19">
          <mxGeometry relative="1" as="geometry">
            <Array as="points">
              <mxPoint x="460" y="65" />
              <mxPoint x="460" y="235" />
            </Array>
          </mxGeometry>
        </mxCell>
        <mxCell id="sro_WitSXFkHnFcWvMGU-44" style="edgeStyle=orthogonalEdgeStyle;rounded=0;orthogonalLoop=1;jettySize=auto;html=1;entryX=1;entryY=0.5;entryDx=0;entryDy=0;endArrow=block;endFill=0;" edge="1" parent="1" source="sro_WitSXFkHnFcWvMGU-16" target="sro_WitSXFkHnFcWvMGU-20">
          <mxGeometry relative="1" as="geometry">
            <Array as="points">
              <mxPoint x="460" y="65" />
              <mxPoint x="460" y="325" />
            </Array>
          </mxGeometry>
        </mxCell>
        <mxCell id="sro_WitSXFkHnFcWvMGU-45" style="edgeStyle=orthogonalEdgeStyle;rounded=0;orthogonalLoop=1;jettySize=auto;html=1;entryX=1;entryY=0.5;entryDx=0;entryDy=0;endArrow=block;endFill=0;" edge="1" parent="1" source="sro_WitSXFkHnFcWvMGU-16" target="sro_WitSXFkHnFcWvMGU-21">
          <mxGeometry relative="1" as="geometry">
            <Array as="points">
              <mxPoint x="460" y="65" />
              <mxPoint x="460" y="405" />
            </Array>
          </mxGeometry>
        </mxCell>
        <mxCell id="sro_WitSXFkHnFcWvMGU-16" value="Пользователи" style="shape=module;align=left;spacingLeft=20;align=center;verticalAlign=top;" vertex="1" parent="1">
          <mxGeometry x="340" y="40" width="100" height="50" as="geometry" />
        </mxCell>
        <mxCell id="sro_WitSXFkHnFcWvMGU-18" value="Друзья" style="shape=module;align=left;spacingLeft=20;align=center;verticalAlign=top;" vertex="1" parent="1">
          <mxGeometry x="340" y="130" width="100" height="50" as="geometry" />
        </mxCell>
        <mxCell id="sro_WitSXFkHnFcWvMGU-19" value="Посты" style="shape=module;align=left;spacingLeft=20;align=center;verticalAlign=top;" vertex="1" parent="1">
          <mxGeometry x="340" y="210" width="100" height="50" as="geometry" />
        </mxCell>
        <mxCell id="sro_WitSXFkHnFcWvMGU-20" value="Сообщения" style="shape=module;align=left;spacingLeft=20;align=center;verticalAlign=top;" vertex="1" parent="1">
          <mxGeometry x="340" y="300" width="100" height="50" as="geometry" />
        </mxCell>
        <mxCell id="sro_WitSXFkHnFcWvMGU-21" value="Лента" style="shape=module;align=left;spacingLeft=20;align=center;verticalAlign=top;" vertex="1" parent="1">
          <mxGeometry x="340" y="380" width="100" height="50" as="geometry" />
        </mxCell>
        <mxCell id="sro_WitSXFkHnFcWvMGU-50" style="edgeStyle=orthogonalEdgeStyle;rounded=0;orthogonalLoop=1;jettySize=auto;html=1;endArrow=none;endFill=0;exitX=0;exitY=0;exitDx=0;exitDy=15;exitPerimeter=0;" edge="1" parent="1" source="sro_WitSXFkHnFcWvMGU-26">
          <mxGeometry relative="1" as="geometry">
            <mxPoint x="460" y="145" as="targetPoint" />
            <Array as="points">
              <mxPoint x="560" y="135" />
              <mxPoint x="560" y="100" />
              <mxPoint x="460" y="100" />
            </Array>
          </mxGeometry>
        </mxCell>
        <mxCell id="sro_WitSXFkHnFcWvMGU-26" value="Безопасность" style="shape=module;align=left;spacingLeft=20;align=center;verticalAlign=top;" vertex="1" parent="1">
          <mxGeometry x="590" y="120" width="100" height="50" as="geometry" />
        </mxCell>
        <mxCell id="sro_WitSXFkHnFcWvMGU-46" value="База данных" style="shape=module;align=left;spacingLeft=20;align=center;verticalAlign=top;" vertex="1" parent="1">
          <mxGeometry x="590" y="270" width="100" height="50" as="geometry" />
        </mxCell>
        <mxCell id="sro_WitSXFkHnFcWvMGU-48" style="edgeStyle=orthogonalEdgeStyle;rounded=0;orthogonalLoop=1;jettySize=auto;html=1;entryX=1;entryY=0.5;entryDx=0;entryDy=0;endArrow=block;endFill=0;" edge="1" parent="1" source="sro_WitSXFkHnFcWvMGU-47" target="sro_WitSXFkHnFcWvMGU-46">
          <mxGeometry relative="1" as="geometry">
            <Array as="points">
              <mxPoint x="720" y="225" />
              <mxPoint x="720" y="295" />
            </Array>
          </mxGeometry>
        </mxCell>
        <mxCell id="sro_WitSXFkHnFcWvMGU-49" style="edgeStyle=orthogonalEdgeStyle;rounded=0;orthogonalLoop=1;jettySize=auto;html=1;endArrow=none;endFill=0;exitX=0;exitY=0;exitDx=0;exitDy=15;exitPerimeter=0;" edge="1" parent="1" source="sro_WitSXFkHnFcWvMGU-47">
          <mxGeometry relative="1" as="geometry">
            <mxPoint x="460" y="210" as="targetPoint" />
          </mxGeometry>
        </mxCell>
        <mxCell id="sro_WitSXFkHnFcWvMGU-47" value="JPA" style="shape=module;align=left;spacingLeft=20;align=center;verticalAlign=top;" vertex="1" parent="1">
          <mxGeometry x="590" y="200" width="100" height="50" as="geometry" />
        </mxCell>
      </root>
    </mxGraphModel>
  </diagram>
</mxfile>
